<svg width="3019" height="561" viewBox="0 0 3019 561" fill="#3294F8" xmlns="http://www.w3.org/2000/svg">
  <g clip-path="url(#clip0_9_7)">
    <g clip-path="url(#clip1_9_7)">
      <path fill-rule="evenodd" clip-rule="evenodd"
        d="M0.164355 0H560.836C560.926 0 561 0.0735845 561 0.164355V560.836C561 560.926 560.926 561 560.836 561H380.245C379.849 555.494 377.567 546.756 367.061 546.756C352.816 546.756 349.529 540.182 349.529 533.607L350.625 456.908C350.625 430.611 341.859 413.08 330.902 404.314C393.357 397.74 459.1 373.635 459.1 266.256C459.1 235.576 448.143 210.375 430.611 190.652C433.898 184.078 442.664 155.59 427.324 117.24C427.324 117.24 404.314 109.57 350.625 145.729C304.605 132.58 256.395 132.58 210.375 145.729C156.686 109.57 133.676 117.24 133.676 117.24C118.336 155.59 127.102 184.078 130.389 190.652C112.857 210.375 101.9 235.576 101.9 266.256C101.9 373.635 166.547 397.74 229.002 404.314C221.332 411.984 213.662 424.037 211.471 442.664C195.035 449.238 154.494 461.291 130.389 418.559C130.389 418.559 115.049 392.262 86.5606 390.07C86.5606 390.07 59.168 390.07 85.4649 407.602C85.4649 407.602 102.996 415.271 116.145 448.143C116.145 448.143 132.58 496.354 210.375 478.822L211.471 533.607C211.471 540.182 208.184 546.756 193.939 546.756C183.433 546.756 181.151 555.494 180.755 561H0.164355C0.0735845 561 0 560.926 0 560.836V0.164355C0 0.0735845 0.0735845 0 0.164355 0Z" />
    </g>
    <path
      d="M694.077 192.721H781.788V440.444C778.232 441.234 772.701 442.222 765.194 443.407C758.083 444.593 750.378 445.185 742.081 445.185C727.463 445.185 715.808 440.839 707.116 432.147C698.423 423.455 694.077 411.8 694.077 397.181V192.721ZM781.788 336.14H694.077V132.864C694.077 117.85 698.423 106.195 707.116 97.8982C715.808 89.2062 727.463 84.8601 742.081 84.8601C750.378 84.8601 758.083 85.4528 765.194 86.638C772.701 87.8233 778.232 88.8111 781.788 89.6012V336.14ZM742.081 296.433V225.316H921.059C923.429 229.267 925.602 234.205 927.578 240.132C929.553 246.058 930.541 252.577 930.541 259.689C930.541 272.332 927.578 281.617 921.651 287.543C916.12 293.469 908.613 296.433 899.131 296.433H742.081ZM742.081 445.185V373.476H940.616C942.986 377.032 945.159 381.97 947.135 388.292C949.11 394.613 950.098 401.33 950.098 408.442C950.098 421.085 947.135 430.369 941.208 436.296C935.677 442.222 928.17 445.185 918.688 445.185H742.081ZM742.081 155.977V84.8601H937.653C940.418 88.416 942.591 93.1571 944.172 99.0835C946.147 105.01 947.135 111.529 947.135 118.641C947.135 131.284 944.369 140.766 938.838 147.087C933.306 153.014 925.602 155.977 915.725 155.977H742.081ZM1102.32 267.393L1118.32 265.615C1132.54 247.046 1146.37 228.872 1159.8 211.092C1173.24 193.313 1186.87 174.941 1200.7 155.977C1202.28 155.582 1203.86 155.384 1205.44 155.384C1207.02 155.384 1208.4 155.384 1209.59 155.384C1225.79 155.384 1238.63 158.94 1248.11 166.052C1257.59 172.768 1262.33 181.658 1262.33 192.721C1262.33 201.413 1260.16 209.315 1255.81 216.426C1251.47 223.143 1243.96 232.823 1233.29 245.466C1222.62 257.713 1211.76 270.159 1200.7 282.802C1190.03 295.05 1179.36 307.298 1168.69 319.546L1142.03 331.991C1128.59 351.351 1114.96 370.71 1101.13 390.07C1087.3 409.429 1073.67 428.789 1060.24 448.148C1058.66 448.148 1056.69 448.148 1054.31 448.148C1051.94 448.544 1049.97 448.741 1048.39 448.741C1031.4 448.741 1018.16 445.185 1008.68 438.074C999.594 430.567 995.051 421.48 995.051 410.812C995.051 402.91 996.829 395.799 1000.38 389.477C1004.34 383.156 1011.25 374.266 1021.13 362.808C1034.16 347.005 1047.6 331.201 1061.43 315.397C1075.25 299.198 1088.89 283.197 1102.32 267.393ZM1153.88 274.505L1174.03 285.172C1189.04 305.322 1204.45 325.67 1220.25 346.214C1236.06 366.364 1251.47 386.711 1266.48 407.256C1264.9 420.294 1259.76 430.764 1251.07 438.666C1242.77 446.173 1232.5 449.926 1220.25 449.926C1207.61 449.531 1197.34 445.778 1189.44 438.666C1181.53 431.555 1173.63 422.665 1165.73 411.997C1155.85 397.774 1145.78 383.353 1135.51 368.735C1125.23 354.116 1115.16 339.695 1105.28 325.472L1090.47 315.397C1073.87 296.038 1057.67 276.876 1041.87 257.911C1026.07 238.551 1010.06 219.192 993.865 199.832C996.631 186.794 1002.16 176.127 1010.46 167.83C1018.76 159.533 1028.83 155.384 1040.68 155.384C1052.14 155.384 1061.03 158.15 1067.35 163.681C1073.67 169.213 1080.59 177.114 1088.1 187.387C1098.76 201.215 1109.43 215.438 1120.1 230.057C1131.16 244.675 1142.42 259.491 1153.88 274.505ZM1455.94 452.89C1483.6 452.89 1508.29 447.161 1530.02 435.703C1551.75 423.85 1568.94 406.664 1581.58 384.143C1594.23 361.623 1600.55 333.571 1600.55 299.988C1600.55 265.22 1594.03 236.971 1580.99 215.241C1567.95 193.116 1549.58 176.917 1525.88 166.644C1502.56 155.977 1475.7 150.643 1445.28 150.643C1422.76 150.643 1402.41 153.211 1384.23 158.347C1366.06 163.089 1351.05 169.213 1339.19 176.719C1330.9 181.856 1324.77 187.782 1320.82 194.499C1316.87 200.82 1314.9 208.919 1314.9 218.797V412.59H1402.01V231.242C1407.15 228.081 1413.27 225.513 1420.39 223.538C1427.89 221.167 1436.19 219.982 1445.28 219.982C1458.71 219.982 1470.36 222.748 1480.24 228.279C1490.12 233.81 1497.63 242.502 1502.76 254.355C1508.29 265.813 1511.06 281.024 1511.06 299.988C1511.06 327.645 1504.94 348.387 1492.69 362.216C1480.83 376.044 1464.04 382.958 1442.31 382.958C1430.07 382.958 1419 380.588 1409.13 375.846C1399.64 371.105 1391.54 365.969 1384.83 360.438V434.518C1393.52 439.259 1403.79 443.407 1415.64 446.963C1427.5 450.914 1440.93 452.89 1455.94 452.89ZM1402.61 390.07H1314.9V513.339C1314.9 529.143 1318.65 540.008 1326.16 545.934C1334.06 551.86 1346.31 554.824 1362.9 554.824C1371.2 554.824 1378.9 554.231 1386.01 553.046C1393.12 551.86 1398.66 550.675 1402.61 549.49V390.07ZM1659.32 287.543L1747.62 289.321V443.407C1743.67 444.593 1738.14 445.58 1731.03 446.371C1723.92 447.556 1716.21 448.148 1707.92 448.148C1691.32 448.148 1679.08 445.185 1671.17 439.259C1663.27 433.332 1659.32 422.665 1659.32 407.256V287.543ZM1747.62 334.954L1659.32 333.176V58.1913C1663.27 57.006 1668.8 55.8208 1675.92 54.6355C1683.03 53.4502 1690.73 52.8576 1699.03 52.8576C1716.02 52.8576 1728.27 55.8208 1735.77 61.7472C1743.67 67.6736 1747.62 78.5386 1747.62 94.3424V334.954ZM2107 301.766C2107 332.584 2100.67 359.45 2088.03 382.365C2075.78 404.886 2058.4 422.27 2035.88 434.518C2013.36 446.766 1986.89 452.89 1956.47 452.89C1926.44 452.89 1899.97 446.963 1877.05 435.11C1854.53 422.863 1836.95 405.478 1824.31 382.958C1812.06 360.043 1805.93 332.979 1805.93 301.766C1805.93 270.554 1812.26 243.885 1824.9 221.76C1837.54 199.24 1855.12 181.856 1877.64 169.608C1900.56 156.965 1926.83 150.643 1956.47 150.643C1986.49 150.643 2012.77 156.965 2035.29 169.608C2057.81 181.856 2075.39 199.437 2088.03 222.353C2100.67 244.873 2107 271.344 2107 301.766ZM1956.47 219.982C1937.9 219.982 1923.08 227.094 1912.02 241.317C1901.35 255.54 1896.02 275.69 1896.02 301.766C1896.02 328.238 1901.35 348.585 1912.02 362.808C1922.68 376.637 1937.5 383.551 1956.47 383.551C1975.43 383.551 1990.25 376.439 2000.91 362.216C2011.58 347.992 2016.91 327.843 2016.91 301.766C2016.91 276.085 2011.58 256.133 2000.91 241.91C1990.25 227.291 1975.43 219.982 1956.47 219.982ZM2249.9 235.983V310.063H2162.19V225.316C2162.19 214.253 2164.75 204.969 2169.89 197.462C2175.42 189.56 2182.93 182.646 2192.41 176.719C2205.45 168.817 2221.05 162.694 2239.23 158.347C2257.8 153.606 2277.16 151.236 2297.31 151.236C2337.61 151.236 2357.76 164.669 2357.76 191.535C2357.76 197.857 2356.77 203.783 2354.79 209.315C2353.21 214.846 2351.24 219.587 2348.87 223.538C2344.92 222.748 2339.98 222.155 2334.05 221.76C2328.52 220.97 2322.4 220.575 2315.68 220.575C2303.83 220.575 2291.97 221.958 2280.12 224.723C2268.27 227.489 2258.19 231.242 2249.9 235.983ZM2162.19 287.543L2249.9 289.321V443.407C2245.95 444.593 2240.41 445.58 2233.3 446.371C2226.19 447.556 2218.49 448.148 2210.19 448.148C2193.6 448.148 2181.35 445.185 2173.45 439.259C2165.94 433.332 2162.19 422.665 2162.19 407.256V287.543ZM2432.84 343.251L2429.29 283.987L2576.26 260.874C2575.47 249.812 2570.73 239.539 2562.04 230.057C2553.35 220.575 2540.5 215.834 2523.52 215.834C2505.74 215.834 2490.92 221.958 2479.07 234.205C2467.21 246.058 2460.89 263.047 2460.1 285.172L2463.07 326.065C2466.62 347.795 2475.91 363.401 2490.92 372.883C2505.93 381.97 2523.71 386.514 2544.26 386.514C2560.85 386.514 2576.46 384.143 2591.08 379.402C2605.69 374.661 2617.55 369.722 2626.63 364.586C2632.56 368.142 2637.3 373.081 2640.86 379.402C2644.81 385.724 2646.78 392.44 2646.78 399.552C2646.78 411.405 2642.04 421.282 2632.56 429.184C2623.47 437.086 2610.63 443.012 2594.04 446.963C2577.84 450.914 2559.27 452.89 2538.33 452.89C2507.91 452.89 2480.45 447.161 2455.95 435.703C2431.85 424.245 2412.89 407.059 2399.06 384.143C2385.23 361.228 2378.32 332.584 2378.32 298.211C2378.32 272.925 2382.27 250.997 2390.17 232.428C2398.47 213.858 2409.33 198.647 2422.77 186.794C2436.59 174.546 2452 165.459 2468.99 159.533C2486.38 153.606 2504.35 150.643 2522.92 150.643C2550.18 150.643 2573.89 156.174 2594.04 167.237C2614.58 177.905 2630.59 192.523 2642.04 211.092C2653.5 229.662 2659.23 251.194 2659.23 275.69C2659.23 287.938 2655.87 297.223 2649.16 303.544C2642.44 309.866 2633.15 313.817 2621.3 315.397L2432.84 343.251ZM2800.87 235.983V310.063H2713.16V225.316C2713.16 214.253 2715.72 204.969 2720.86 197.462C2726.39 189.56 2733.9 182.646 2743.38 176.719C2756.42 168.817 2772.02 162.694 2790.2 158.347C2808.77 153.606 2828.13 151.236 2848.28 151.236C2888.58 151.236 2908.73 164.669 2908.73 191.535C2908.73 197.857 2907.74 203.783 2905.76 209.315C2904.18 214.846 2902.21 219.587 2899.84 223.538C2895.89 222.748 2890.95 222.155 2885.02 221.76C2879.49 220.97 2873.37 220.575 2866.65 220.575C2854.8 220.575 2842.94 221.958 2831.09 224.723C2819.24 227.489 2809.16 231.242 2800.87 235.983ZM2713.16 287.543L2800.87 289.321V443.407C2796.92 444.593 2791.38 445.58 2784.27 446.371C2777.16 447.556 2769.46 448.148 2761.16 448.148C2744.57 448.148 2732.32 445.185 2724.42 439.259C2716.91 433.332 2713.16 422.665 2713.16 407.256V287.543Z" />
  </g>
  <defs>
    <clipPath id="clip0_9_7">
      <rect width="3019" height="561" fill="white" />
    </clipPath>
    <clipPath id="clip1_9_7">
      <rect width="561" height="561" rx="50" fill="white" />
    </clipPath>
  </defs>
</svg>